<svg xmlns="http://www.w3.org/2000/svg" viewBox="0 0 380.77 173.46"><defs><style>.a{isolation:isolate;}.b{mix-blend-mode:multiply;}.c{fill:#07050c;}.d{fill:#fff;}</style></defs><title>logo</title><g class="a"><g class="b"><path class="c" d="M294.59,64.73V43.24h3.8c2.54,0,3.83,1.38,3.83,3.68V61.07c0,2.43-1.29,3.66-3.83,3.66Zm4.54-17.83c0-.55-.26-.81-.74-.81h-.68v15.8h.68c.49,0,.74-.26.74-.81Z"/><path class="c" d="M306.84,64.73V43.24h6.45v2.85H310v6.27h2.11V55.2H310v6.68h3.48v2.85Z"/><path class="c" d="M321.95,58.36c0-1.12-.4-1.59-2.28-3.81-1.46-1.75-2.2-3-2.2-4.8V46.53c0-2.35,1.26-3.52,3.8-3.52s3.68,1.12,3.68,3.52v3.94h-2.85V46.53c0-.44-.26-.68-.74-.68s-.74.23-.74.68v3.19c0,1.1.51,1.59,2.26,3.66s2.17,3.11,2.17,5v3.08c0,2.3-1.11,3.55-3.77,3.55s-3.8-1.25-3.8-3.55V56.84h3v4.57c0,.47.26.71.74.71s.77-.23.77-.71Z"/><path class="c" d="M329.6,64.73V43.24h3.11V64.73Z"/><path class="c" d="M344.79,64.86l-1-.86A3.56,3.56,0,0,1,341,65c-2.06,0-3.62-.91-3.62-3.65V46.69c0-2.4,1.23-3.68,3.85-3.68s3.68,1.28,3.68,3.68v3.79h-2.8V46.66c0-.55-.29-.81-.88-.81s-.74.26-.74.81V61.31c0,.55.23.81.71.81s.88-.26.88-.81V57.1h-1V54.39h4V64.86Z"/><path class="c" d="M355,64.73c-1.91-8.3-2.43-10.76-2.88-13.16.09,2.53.09,5,.09,7.62v5.53h-2.6V43.24h3.57c1.6,9.06,1.91,11.23,2.28,13.45-.09-2.3-.09-4.52-.09-6.74V43.24H358V64.73Z"/><path class="c" d="M362.58,64.73V61.46h2.88v3.26Z"/><path class="c" d="M294.59,97.44V76h3.8c2.54,0,3.83,1.38,3.83,3.68V93.78c0,2.43-1.29,3.66-3.83,3.66Zm4.54-17.83c0-.55-.26-.81-.74-.81h-.68v15.8h.68c.49,0,.74-.26.74-.81Z"/><path class="c" d="M306.84,97.44V76h6.45V78.8H310v6.27h2.11v2.85H310v6.68h3.48v2.85Z"/><path class="c" d="M319.49,97.44,317,76h3.23c1,10.63,1.26,13.63,1.4,16.58.23-2.92.4-5.93,1.54-16.58h3.08l-2.66,21.49Z"/><path class="c" d="M330.37,97.44V76h6.45V78.8h-3.34v6.27h2.11v2.85h-2.11v6.68H337v2.85Z"/><path class="c" d="M341.28,97.44V76h3.11V94.59h3.48v2.85Z"/><path class="c" d="M351.79,79.37c0-2.43,1.28-3.66,3.83-3.66s3.83,1.23,3.83,3.66V94c0,2.43-1.28,3.65-3.83,3.65s-3.83-1.23-3.83-3.65Zm4.54,0c0-.55-.23-.81-.71-.81s-.71.26-.71.81V94c0,.55.23.81.71.81s.71-.26.71-.81Z"/><path class="c" d="M364.07,97.44V76h3.8c2.86,0,4.14,1.17,4.14,3.89v3.52c0,2.72-1.26,3.86-4.11,3.86h-.71V97.44Zm4.88-17.62c0-.68-.37-1-1.08-1h-.68v5.67h.71c.71,0,1.06-.34,1.06-1Z"/><path class="c" d="M373.18,97.44V94.18h2.88v3.26Z"/><path class="c" d="M294.59,130.15V108.67h3.8c2.86,0,4.14,1.17,4.14,3.89v3.52c0,2.72-1.26,3.86-4.11,3.86h-.71v10.21Zm4.88-17.62c0-.68-.37-1-1.08-1h-.68v5.67h.71c.71,0,1.06-.34,1.06-1Z"/><path class="c" d="M311.44,130.15c-.31-3.24-.63-6.34-1.08-9.58h-.51v9.58h-3.11V108.67h3.71c2.86,0,4.2,1,4.2,3.86V117c0,1.67-.4,2.51-1.34,3,.6,3.45,1.08,6.79,1.54,10.16Zm.06-17.62c0-.68-.34-1-1.06-1h-.6V118h.63a.9.9,0,0,0,1-1Z"/><path class="c" d="M318.64,112.09c0-2.43,1.28-3.66,3.83-3.66s3.83,1.23,3.83,3.66v14.65c0,2.43-1.28,3.65-3.83,3.65s-3.83-1.23-3.83-3.65Zm4.54,0c0-.55-.23-.81-.71-.81s-.71.26-.71.81v14.65c0,.55.23.81.71.81s.71-.26.71-.81Z"/><path class="c" d="M330.92,130.15V108.67h3.8c2.54,0,3.83,1.38,3.83,3.68V126.5c0,2.43-1.29,3.66-3.83,3.66Zm4.54-17.83c0-.55-.26-.81-.74-.81H334v15.8h.68c.49,0,.74-.26.74-.81Z"/><path class="c" d="M347.62,108.67h3.08v18.07c0,2.43-1.26,3.65-3.8,3.65s-3.83-1.23-3.83-3.65V108.67h3.11v18.07c0,.55.23.81.71.81s.71-.26.71-.81Z"/><path class="c" d="M359.84,122.27h2.83v4.44c0,2.51-1,3.68-3.54,3.68s-3.88-1.2-3.88-3.63V112.14c0-2.48,1.28-3.71,3.88-3.71,2.37,0,3.54,1.23,3.54,3.66v3.81h-2.83v-3.81c0-.55-.23-.81-.71-.81s-.71.26-.71.81v14.65c0,.55.23.81.71.81s.71-.26.71-.81Z"/><path class="c" d="M367.15,130.15V108.67h6.45v2.85h-3.34v6.27h2.11v2.85h-2.11v6.68h3.48v2.85Z"/><path class="c" d="M377.89,130.15v-3.26h2.88v3.26Z"/></g><rect class="c" x="272.32" width="1.31" height="173.46"/><path class="d" d="M29.08,78.39V86.8H0V43.28H9.8V78.39Z"/><path class="d" d="M32.22,43.28H42V86.8h-9.8Z"/><path class="d" d="M60.48,43.28q1.13,2.07,2.61,5.12T66.18,55q1.61,3.55,3.18,7.25l3,7,3-7q1.57-3.71,3.18-7.25t3.09-6.59q1.48-3,2.61-5.12h8.92q.63,4.33,1.16,9.7t.94,11.18q.41,5.81.75,11.65t.6,11H87q-.19-6.34-.5-13.82t-.94-15.07L83,63.75q-1.39,3.2-2.74,6.41t-2.61,6.12q-1.26,2.92-2.14,5H68.68q-.88-2.07-2.14-5t-2.62-6.12q-1.35-3.2-2.74-6.41l-2.52-5.84Q58,65.51,57.72,73t-.5,13.82H47.67q.25-5.15.6-11T49,64.16Q49.43,58.35,50,53t1.16-9.7Z"/><path class="d" d="M143.58,65a26.8,26.8,0,0,1-1.66,9.83,20.23,20.23,0,0,1-4.55,7.1,18.68,18.68,0,0,1-6.88,4.3,25,25,0,0,1-8.57,1.44,24.35,24.35,0,0,1-8.42-1.44,19.33,19.33,0,0,1-6.91-4.3,20.1,20.1,0,0,1-4.65-7.1,26.33,26.33,0,0,1-1.7-9.83A25.49,25.49,0,0,1,102,55.18a20.93,20.93,0,0,1,4.74-7.13,19.51,19.51,0,0,1,6.91-4.33,23.72,23.72,0,0,1,8.26-1.44,24.35,24.35,0,0,1,8.42,1.44,19.16,19.16,0,0,1,6.91,4.33,20.45,20.45,0,0,1,4.65,7.13A26.33,26.33,0,0,1,143.58,65Zm-33.23,0a19.76,19.76,0,0,0,.79,5.78,13.17,13.17,0,0,0,2.26,4.43A10,10,0,0,0,117,78.07a12.37,12.37,0,0,0,9.77,0,9.93,9.93,0,0,0,3.64-2.86,13.21,13.21,0,0,0,2.26-4.43,19.79,19.79,0,0,0,.79-5.78,20.12,20.12,0,0,0-.79-5.81,13.2,13.2,0,0,0-2.26-4.46,10,10,0,0,0-3.64-2.86,11.45,11.45,0,0,0-4.87-1,11.08,11.08,0,0,0-4.9,1,10.31,10.31,0,0,0-3.61,2.89,13.15,13.15,0,0,0-2.26,4.46A19.85,19.85,0,0,0,110.35,65Z"/><path class="d" d="M179.44,43.28v8.35H166.31V86.8h-9.8V51.63H143.39V43.28Z"/><path class="d" d="M182.58,86.8V43.28H212v8.23h-19.6V60h17.4v8h-17.4V78.58h21V86.8Z"/><path class="d" d="M237.35,87.68q-10.61,0-16.17-5.9T215.62,65a25.78,25.78,0,0,1,1.7-9.64A20.75,20.75,0,0,1,222,48.21a19.42,19.42,0,0,1,7-4.43,25.37,25.37,0,0,1,8.86-1.51,28.45,28.45,0,0,1,5,.41,32.83,32.83,0,0,1,4,.94,19.53,19.53,0,0,1,2.83,1.1q1.13.57,1.63.88l-2.83,7.91a23.75,23.75,0,0,0-4.68-1.82,22.33,22.33,0,0,0-6.06-.75,13.39,13.39,0,0,0-4.43.75,10,10,0,0,0-3.83,2.42,12,12,0,0,0-2.67,4.3,18,18,0,0,0-1,6.41,22.87,22.87,0,0,0,.66,5.62,11.92,11.92,0,0,0,2.14,4.49,10.23,10.23,0,0,0,3.86,3,13.74,13.74,0,0,0,5.78,1.1,26.27,26.27,0,0,0,3.83-.25,28,28,0,0,0,3-.6,15.69,15.69,0,0,0,2.32-.79l1.82-.82,2.7,7.85a22.92,22.92,0,0,1-5.84,2.26A34.09,34.09,0,0,1,237.35,87.68Z"/></g></svg>